<svg xmlns="http://www.w3.org/2000/svg" viewBox="0 0 640 360">
  <defs>
    <linearGradient id="g" x1="0" x2="1" y1="0" y2="1">
      <stop offset="0" stop-color="#1f3b87"/>
      <stop offset="1" stop-color="#0ea5e9"/>
    </linearGradient>
    <linearGradient id="g2" x1="0" x2="1" y1="0" y2="1">
      <stop offset="0" stop-color="#7dd3fc" stop-opacity="0.35"/>
      <stop offset="1" stop-color="#93c5fd" stop-opacity="0.15"/>
    </linearGradient>
  </defs>
  <rect width="640" height="360" rx="16" fill="url(#g)"/>
  <rect x="28" y="28" width="584" height="304" rx="12" fill="#0b1220" opacity="0.25"/>
  <rect x="44" y="44" width="552" height="272" rx="12" fill="url(#g2)"/>
  <g fill="#e6f1ff" opacity="0.95">
    <circle cx="120" cy="90" r="6"/>
    <circle cx="160" cy="90" r="6"/>
    <circle cx="200" cy="90" r="6"/>
  </g>
  <rect x="100" y="130" width="440" height="14" rx="7" fill="#e6f1ff" opacity="0.85"/>
  <rect x="140" y="160" width="360" height="10" rx="5" fill="#e6f1ff" opacity="0.65"/>
  <rect x="140" y="180" width="360" height="10" rx="5" fill="#e6f1ff" opacity="0.55"/>
  <rect x="140" y="200" width="220" height="10" rx="5" fill="#e6f1ff" opacity="0.45"/>
  <rect x="140" y="235" width="120" height="28" rx="14" fill="#7dd3fc" opacity="0.85"/>
  <rect x="270" y="235" width="120" height="28" rx="14" fill="#3b82f6" opacity="0.85"/>
  <title>Project thumbnail placeholder</title>
  <style>
    @media (prefers-color-scheme: dark) {
      rect[rx="16"] { filter: saturate(1.1) contrast(1.05); }
    }
  </style>
</svg>


